<svg width="41" height="40" viewBox="0 0 41 40" fill="none" xmlns="http://www.w3.org/2000/svg">
<path d="M35.5 23.1381L35.4998 15.2135C35.4988 13.3214 35.4983 12.3753 35.0383 11.5821C34.5783 10.7889 33.7573 10.3257 32.1153 9.3992L23.74 4.6736C22.1563 3.78004 21.3645 3.33325 20.5 3.33325C19.6355 3.33325 18.8437 3.78004 17.26 4.6736L8.88467 9.3992C7.2427 10.3257 6.42172 10.7889 5.96167 11.5821C5.5016 12.3753 5.50115 13.3214 5.50022 15.2135L5.5 23.1381C5.5 29.5156 5.5 32.7043 7.45262 34.6854C9.40525 36.6666 12.5479 36.6666 18.8333 36.6666H22.1667C28.452 36.6666 31.5948 36.6666 33.5473 34.6854C35.5 32.7043 35.5 29.5156 35.5 23.1381Z" stroke="#737373" stroke-width="1.5" stroke-linecap="round"/>
<path d="M17.1666 21.6667H13.8333M27.1666 21.6667H23.8333M17.1666 15H13.8333M17.1666 28.3333H13.8333M27.1666 15H23.8333M27.1666 28.3333H23.8333" stroke="#737373" stroke-width="1.5" stroke-linecap="round"/>
</svg>
