<svg width="41" height="41" viewBox="0 0 41 41" fill="none" xmlns="http://www.w3.org/2000/svg">
<path d="M35.1233 30.0762C36.3722 30.0762 37.3655 29.2903 38.2575 28.1913C40.0832 25.9418 37.0855 24.1442 35.9423 23.2638C34.78 22.3688 33.4823 21.8618 32.1667 21.7428M30.5 18.4095C32.8012 18.4095 34.6667 16.544 34.6667 14.2428C34.6667 11.9417 32.8012 10.0762 30.5 10.0762" stroke="#737373" stroke-width="1.5" stroke-linecap="round"/>
<path d="M5.87659 30.0762C4.62775 30.0762 3.63444 29.2903 2.74257 28.1913C0.916801 25.9418 3.91444 24.1442 5.05774 23.2638C6.21994 22.3688 7.51762 21.8618 8.83332 21.7428M9.66665 18.4095C7.36547 18.4095 5.49999 16.544 5.49999 14.2428C5.49999 11.9417 7.36547 10.0762 9.66665 10.0762" stroke="#737373" stroke-width="1.5" stroke-linecap="round"/>
<path d="M13.973 25.2614C12.27 26.3144 7.80497 28.4646 10.5245 31.1551C11.853 32.4694 13.3325 33.4094 15.1927 33.4094H25.8073C27.6675 33.4094 29.147 32.4694 30.4755 31.1551C33.195 28.4646 28.73 26.3144 27.027 25.2614C23.0335 22.7921 17.9665 22.7921 13.973 25.2614Z" stroke="#737373" stroke-width="1.5" stroke-linecap="round" stroke-linejoin="round"/>
<path d="M26.3333 12.5763C26.3333 15.7979 23.7217 18.4096 20.5 18.4096C17.2783 18.4096 14.6667 15.7979 14.6667 12.5763C14.6667 9.35459 17.2783 6.74292 20.5 6.74292C23.7217 6.74292 26.3333 9.35459 26.3333 12.5763Z" stroke="#737373" stroke-width="1.5"/>
</svg>
