<svg width="41" height="41" viewBox="0 0 41 41" fill="none" xmlns="http://www.w3.org/2000/svg">
<path d="M31.5268 33.4094H32.3438C34.2601 33.4094 35.7845 32.5363 37.1531 31.3154C40.63 28.2138 32.4568 25.0761 29.6666 25.0761M26.3333 8.52404C26.7118 8.44897 27.1048 8.40942 27.508 8.40942C30.5411 8.40942 33 10.648 33 13.4094C33 16.1708 30.5411 18.4094 27.508 18.4094C27.1048 18.4094 26.7118 18.3699 26.3333 18.2948" stroke="#737373" stroke-width="1.5" stroke-linecap="round"/>
<path d="M7.96885 26.9282C6.0039 27.9812 0.851898 30.1313 3.9898 32.8218C5.52265 34.1362 7.22985 35.0762 9.3762 35.0762H21.6238C23.7702 35.0762 25.4773 34.1362 27.0102 32.8218C30.1482 30.1313 24.9962 27.9812 23.0312 26.9282C18.4233 24.4588 12.5767 24.4588 7.96885 26.9282Z" stroke="#737373" stroke-width="1.5"/>
<path d="M22.1666 12.5761C22.1666 16.258 19.1818 19.2428 15.5 19.2428C11.8181 19.2428 8.83331 16.258 8.83331 12.5761C8.83331 8.89419 11.8181 5.90942 15.5 5.90942C19.1818 5.90942 22.1666 8.89419 22.1666 12.5761Z" stroke="#737373" stroke-width="1.5"/>
</svg>
